<svg xmlns="http://www.w3.org/2000/svg">
  <symbol id="floppy" stroke="currentColor" fill="currentColor">
    <path d="M.5 0h2.15385v2.15385H.5zm0 2.15405h2.15385V4.3079H.5z"/>
    <path d="M.5 4.30762h2.15385v2.15385H.5zm0 2.15405h2.15385v2.15385H.5z"/>
    <path d="M.5 8.61523h2.15385v2.15385H.5zm0 2.15407h2.15385v2.15385H.5z"/>
    <path d="M.5 12.9231h2.15385v2.15385H.5z"/>
    <path d="M.5 15.0769h2.15385v2.15385H.5z"/>
    <path d="M.5 17.2307h2.15385v2.15385H.5zm0 2.1541h2.15385v2.15385H.5z"/>
    <path d="M.5 21.5383h2.15385v2.15385H.5zm0 2.1541h2.15385v2.15385H.5z"/>
    <path d="M.5 25.8459h2.15385v2.15385H.5zM24.1927 0v2.15385h-2.15385V0z"/>
    <path d="M22.0391 0v2.15385h-2.15385V0zM19.884 0v2.15385h-2.15385V0z"/>
    <path d="M17.7305 0v2.15385h-2.15385V0z"/>
    <path d="M15.5769 0v2.15385h-2.15385V0z"/>
    <path d="M13.4231 0v2.15385h-2.15385V0z"/>
    <path d="M11.2695 0v2.15385H9.11565V0z"/>
    <path d="M9.11597 0v2.15385H6.96212V0zM6.96094 0v2.15385H4.80709V0z"/>
    <path d="M4.80737 0v2.15385H2.65352V0zM26.3463 2.15405V4.3079h-2.15385V2.15405zM6.96094 4.30762v2.15385H4.80709V4.30762z"/>
    <path d="M6.96094 2.15405V4.3079H4.80709V2.15405zm0 4.30762v2.15385H4.80709V6.46167zM22.0391 4.30762v2.15385h-2.15385V4.30762z"/>
    <path d="M22.0391 2.15405V4.3079h-2.15385V2.15405zm0 4.30762v2.15385h-2.15385V6.46167zm-4.3086-2.15405v2.15385h-2.15385V4.30762z"/>
    <path d="M17.7305 2.15405V4.3079h-2.15385V2.15405zm0 4.30762v2.15385h-2.15385V6.46167zm4.3086 2.15356v2.15385h-2.15385V8.61523z"/>
    <path d="M19.884 8.61523v2.15385h-2.15385V8.61523z"/>
    <path d="M17.7305 8.61523v2.15385h-2.15385V8.61523z"/>
    <path d="M15.5769 8.61523v2.15385h-2.15385V8.61523z"/>
    <path d="M13.4231 8.61523v2.15385h-2.15385V8.61523z"/>
    <path d="M11.2695 8.61523v2.15385H9.11565V8.61523z"/>
    <path d="M9.11597 8.61523v2.15385H6.96212V8.61523zm-2.15503 0v2.15385H4.80709V8.61523zM24.1927 15.0769v2.15385h-2.15385V15.0769z"/>
    <path d="M22.0391 15.0769v2.15385h-2.15385V15.0769zm-2.1551 0v2.15385h-2.15385V15.0769z"/>
    <path d="M17.7305 15.0769v2.15385h-2.15385V15.0769z"/>
    <path d="M15.5769 15.0769v2.15385h-2.15385V15.0769z"/>
    <path d="M13.4231 15.0769v2.15385h-2.15385V15.0769z"/>
    <path d="M11.2695 15.0769v2.15385H9.11565V15.0769z"/>
    <path d="M9.11597 15.0769v2.15385H6.96212V15.0769zm-2.15503 0v2.15385H4.80709V15.0769zm17.23176 2.1538v2.15385h-2.15385V17.2307z"/>
    <path d="M6.96094 17.2307v2.15385H4.80709V17.2307zm17.23176 2.1541v2.15385h-2.15385V19.3848zm-17.23176 0v2.15385H4.80709V19.3848z"/>
    <path d="M24.1927 21.5383v2.15385h-2.15385V21.5383zm-17.23176 0v2.15385H4.80709V21.5383zm0 2.1541v2.15385H4.80709V23.6924zm17.23176 0v2.15385h-2.15385V23.6924z"/>
    <path d="M26.3463 25.8459v2.15385h-2.15385V25.8459z"/>
    <path d="M24.1927 25.8459v2.15385h-2.15385V25.8459z"/>
    <path d="M22.0391 25.8459v2.15385h-2.15385V25.8459zm-2.1551 0v2.15385h-2.15385V25.8459z"/>
    <path d="M17.7305 25.8459v2.15385h-2.15385V25.8459z"/>
    <path d="M15.5769 25.8459v2.15385h-2.15385V25.8459z"/>
    <path d="M13.4231 25.8459v2.15385h-2.15385V25.8459z"/>
    <path d="M11.2695 25.8459v2.15385H9.11565V25.8459z"/>
    <path d="M9.11597 25.8459v2.15385H6.96212V25.8459zm-2.15503 0v2.15385H4.80709V25.8459z"/>
    <path d="M4.80737 25.8459v2.15385H2.65352V25.8459zM28.5 28h-2.15385v-2.15385H28.5zm0-2.1541h-2.15385v-2.15385H28.5z"/>
    <path d="M28.5 23.6924h-2.15385v-2.15385H28.5zm0-2.1541h-2.15385v-2.15385H28.5z"/>
    <path d="M28.5 19.3848h-2.15385v-2.15385H28.5zm0-2.1541h-2.15385v-2.15385H28.5z"/>
    <path d="M28.5 15.0769h-2.15385v-2.15385H28.5z"/>
    <path d="M28.5 12.9231h-2.15385v-2.15385H28.5z"/>
    <path d="M28.5 10.7693h-2.15385V8.61545H28.5zm0-2.15407h-2.15385V6.46138H28.5z"/>
    <path d="M28.5 6.46167h-2.15385V4.30782H28.5z"/>
  </symbol>
</svg>